<svg width="24" height="24" xmlns="http://www.w3.org/2000/svg">

 <g>
  <title>background</title>
  <rect fill="none" id="canvas_background" height="402" width="582" y="-1" x="-1"/>
 </g>
 <g>
  <title>Layer 1</title>
  <path fill="#f5f5f5" id="svg_1" d="m12,2.163c3.204,0 3.584,0.012 4.85,0.07c3.251999,0.148 4.771,1.691 4.918999,4.919c0.058001,1.265 0.069,1.645 0.069,4.849c0,3.205 -0.011999,3.584 -0.069,4.849c-0.148998,3.225 -1.664,4.771 -4.918999,4.918999c-1.266001,0.058001 -1.644,0.070002 -4.85,0.070002c-3.204,0 -3.584,-0.012001 -4.849,-0.070002c-3.26,-0.148998 -4.771,-1.698999 -4.919,-4.919998c-0.058,-1.265001 -0.07,-1.644001 -0.07,-4.849001c0,-3.204 0.013,-3.583 0.07,-4.849c0.149,-3.227 1.664,-4.771 4.919,-4.919c1.266,-0.057 1.645,-0.069 4.849,-0.069zm0,-2.163c-3.259,0 -3.667,0.014 -4.947,0.072c-4.358,0.2 -6.78,2.618 -6.98,6.98c-0.059,1.281 -0.073,1.689 -0.073,4.948c0,3.259 0.014,3.668 0.072,4.948c0.2,4.358 2.618,6.780001 6.98,6.98c1.281,0.058001 1.689,0.072001 4.948,0.072001c3.259,0 3.668,-0.014 4.948,-0.072001c4.354,-0.199999 6.782,-2.618 6.979,-6.98c0.059,-1.28 0.073,-1.689 0.073,-4.948c0,-3.259 -0.014,-3.667 -0.072001,-4.947c-0.195999,-4.354 -2.616999,-6.78 -6.979,-6.98c-1.280999,-0.059 -1.69,-0.073 -4.948999,-0.073zm0,5.838c-3.403,0 -6.162,2.759 -6.162,6.162s2.759,6.163 6.162,6.163s6.162001,-2.759 6.162001,-6.163c0,-3.403 -2.759001,-6.162 -6.162001,-6.162zm0,10.162c-2.209,0 -4,-1.79 -4,-4c0,-2.209001 1.791,-4 4,-4s4,1.791 4,4c0,2.21 -1.791,4 -4,4zm6.406,-11.845001c-0.796,0 -1.441,0.645 -1.441,1.44s0.645,1.44 1.441,1.44c0.795,0 1.438999,-0.645 1.438999,-1.44s-0.643999,-1.44 -1.438999,-1.44z"/>
 </g>
</svg>