<?xml version="1.0" encoding="UTF-8" standalone="no"?>
<!DOCTYPE svg PUBLIC "-//W3C//DTD SVG 1.1//EN" "http://www.w3.org/Graphics/SVG/1.1/DTD/svg11.dtd">
<svg version="1.1" xmlns="http://www.w3.org/2000/svg" xmlns:xlink="http://www.w3.org/1999/xlink" preserveAspectRatio="xMidYMid meet" viewBox="-3.552713678800501e-15 0 24 24" width="24" height="24"><defs><path d="M5.16 9.25C4.56 9.43 3.94 9.1 3.76 8.5C3.58 7.91 3.91 7.28 4.51 7.1C8.74 5.82 15.79 6.07 20.24 8.71C20.78 9.03 20.95 9.71 20.64 10.25C20.32 10.78 19.63 10.96 19.1 10.64C15.23 8.34 8.85 8.13 5.16 9.25ZM17.68 14.35C14.46 12.37 9.54 11.79 5.73 12.95C5.23 13.1 4.71 12.82 4.56 12.33C4.41 11.83 4.69 11.31 5.18 11.16C9.54 9.84 14.96 10.48 18.66 12.76C19.1 13.03 19.24 13.6 18.97 14.04C18.7 14.48 18.12 14.62 17.68 14.35ZM16.47 17.56C13.66 15.84 10.11 15.45 5.93 16.4C5.53 16.49 5.13 16.24 5.04 15.84C4.95 15.43 5.2 15.03 5.6 14.94C10.17 13.9 14.09 14.35 17.26 16.28C17.61 16.49 17.72 16.96 17.5 17.31C17.29 17.66 16.83 17.77 16.47 17.56ZM0 12C0 18.63 5.37 24 12 24C18.63 24 24 18.63 24 12C24 5.37 18.63 0 12 0C5.37 0 0 5.37 0 12Z" id="a2dBZ1CsiV"></path></defs><g><use xlink:href="#a2dBZ1CsiV" opacity="1" fill="#ffffff" fill-opacity="1"></use><g><use xlink:href="#a2dBZ1CsiV" opacity="1" fill-opacity="0" stroke="#000000" stroke-width="1" stroke-opacity="0"></use></g></g></svg>