<svg width="24" height="24" xmlns="http://www.w3.org/2000/svg">

 <g>
  <title>background</title>
  <rect fill="none" id="canvas_background" height="402" width="582" y="-1" x="-1"/>
 </g>
 <g>
  <title>Layer 1</title>
  <path fill="#f5f5f5" id="svg_1" d="m24,4.557c-0.882999,0.392 -1.832001,0.656 -2.827999,0.775c1.016998,-0.609 1.797998,-1.574 2.164999,-2.724c-0.951,0.564 -2.004999,0.974 -3.127001,1.195c-0.896999,-0.957 -2.177999,-1.555 -3.594,-1.555c-3.178999,0 -5.514999,2.966 -4.796999,6.045c-4.091,-0.205 -7.719,-2.165 -10.148,-5.144c-1.29,2.213 -0.669,5.108 1.523,6.574c-0.806,-0.026 -1.566,-0.247 -2.229,-0.615999c-0.054,2.280999 1.581,4.415 3.949,4.889999c-0.693,0.188001 -1.452,0.232 -2.224,0.084001c0.626,1.956 2.444,3.378999 4.6,3.419c-2.07,1.622999 -4.678,2.348 -7.29,2.040001c2.179,1.396999 4.768,2.212 7.548,2.212c9.142001,0 14.307,-7.721001 13.994999,-14.646001c0.962,-0.695 1.797001,-1.562 2.457001,-2.549z"/>
 </g>
</svg>